<svg width="81" height="28" fill="none" xmlns="http://www.w3.org/2000/svg">
    <path
        d="M80.7 6.61c.153-.035.3.082.3.24v2.338c0 .115-.08.214-.192.24l-6.448 1.457a.247.247 0 01-.3-.24V8.305c0-.114.08-.213.192-.239l6.447-1.457zm0-4.086c.153-.035.3.082.3.24V5.1c0 .115-.08.215-.192.24L67.42 8.368a.247.247 0 01-.3-.24V5.789c0-.115.08-.215.191-.24L80.7 2.524zM73.758.007c.154-.035.3.081.3.239v2.339c0 .114-.079.214-.19.24l-6.45 1.456a.247.247 0 01-.3-.24V1.703c0-.115.08-.214.192-.24L73.76.008zM7.06 19.79c0 .08.039.155.104.2 1.295.897 2.944 1.476 4.986 1.476 3.604 0 5.482-1.963 5.482-4.319 0-2.443-1.42-3.643-4.15-4.842-1.703-.764-3.276-1.287-3.276-2.509 0-.916.874-1.57 2.446-1.57 1.315 0 2.323.355 3.204.995.171.124.422.008.422-.203V6.916a.24.24 0 00-.108-.202c-1.006-.65-2.213-.975-3.583-.975-2.927 0-5.111 1.549-5.111 4.057 0 2.378 1.769 3.534 4.04 4.494 2.381 1.003 3.408 1.505 3.408 2.857 0 .96-.983 1.876-2.927 1.876-1.858 0-3.338-.65-4.503-1.634-.166-.14-.433-.026-.433.192v2.21zM19.086 15.686c0 3.359 2.6 5.824 6.007 5.824 1.309 0 2.537-.347 3.446-1.04a.238.238 0 00.092-.19v-1.916c0-.218-.268-.333-.44-.2-.897.696-1.897.968-2.945.968-2.054 0-3.56-1.461-3.56-3.446s1.506-3.447 3.56-3.447c1.049 0 2.05.29 2.948.978.172.131.437.016.437-.2v-1.923a.238.238 0 00-.095-.192c-.909-.674-2.135-1.04-3.443-1.04-3.408 0-6.007 2.465-6.007 5.824zM30.573 20.958c0 .136.11.246.246.246h2.107c.136 0 .246-.11.246-.246v-5.534c0-1.81 1.158-2.945 2.97-2.945.288 0 .555.021.793.056a.26.26 0 00.3-.25V10.26a.227.227 0 00-.2-.23 5.786 5.786 0 00-.586-.037c-1.573 0-2.753.72-3.277 1.854v-1.39a.246.246 0 00-.246-.246h-2.107a.246.246 0 00-.246.246v10.501zM40.394 8.924c.83 0 1.551-.676 1.551-1.549 0-.872-.72-1.548-1.55-1.548-.853 0-1.573.676-1.573 1.548 0 .873.72 1.549 1.572 1.549zm-1.31 12.034c0 .136.11.246.246.246h2.129c.136 0 .246-.11.246-.246V10.457a.246.246 0 00-.246-.246H39.33a.246.246 0 00-.246.246v10.501zM44.011 20.958c0 .136.11.246.246.246h2.129c.136 0 .246-.11.246-.246v-1.346c.372 1.025 1.66 1.832 3.517 1.832 3.101 0 5.504-2.486 5.504-5.736 0-3.25-2.403-5.737-5.504-5.737-1.857 0-3.145.807-3.517 1.832V6.437a.246.246 0 00-.3-.24l-2.129.481a.246.246 0 00-.192.24v14.04zm2.425-5.25c0-1.92 1.463-3.36 3.363-3.36 1.857 0 3.255 1.44 3.255 3.36 0 1.919-1.398 3.359-3.255 3.359-1.9 0-3.363-1.44-3.363-3.36zM56.99 15.816c0 3.469 2.359 5.715 5.81 5.715 1.856 0 2.96-.366 3.957-1.04a.241.241 0 00.106-.2V18.54c0-.215-.264-.335-.442-.215-.685.46-1.808.917-3.512.917-1.966 0-3.232-1.112-3.32-2.857h8.208a.24.24 0 00.242-.222c.025-.368.025-.716.025-.716 0-3.054-2.14-5.497-5.373-5.497-3.277 0-5.701 2.247-5.701 5.758v.11zm2.665-1.286c.087-1.31 1.42-2.356 3.036-2.356 1.507 0 2.708 1.069 2.708 2.356h-5.744z"
        fill="#fff" />
</svg>
