<svg width="16" height="16" viewBox="0 0 16 16" fill="none" xmlns="http://www.w3.org/2000/svg">
<path d="M7 0C10.866 0 14 3.13401 14 7C14 8.57231 13.4807 10.0228 12.6055 11.1914L14.8887 13.4746C15.2792 13.8651 15.2792 14.4981 14.8887 14.8887C14.4981 15.2792 13.8651 15.2792 13.4746 14.8887L11.1914 12.6055C10.0228 13.4807 8.57231 14 7 14C3.13401 14 0 10.866 0 7C0 3.13401 3.13401 0 7 0ZM7 2C4.23858 2 2 4.23858 2 7C2 9.76142 4.23858 12 7 12C9.76142 12 12 9.76142 12 7C12 4.23858 9.76142 2 7 2ZM7 3.5C7.14062 3.5 7.26563 3.59375 7.32812 3.71875L8.26562 5.73438L10.2812 6.67188C10.4062 6.73437 10.5 6.85938 10.5 7C10.5 7.15625 10.4062 7.28125 10.2812 7.34375L8.26562 8.28125L7.32812 10.2969C7.26563 10.4219 7.14062 10.5 7 10.5C6.84375 10.5 6.71875 10.4219 6.65625 10.2969L5.71875 8.28125L3.70312 7.34375C3.57813 7.28125 3.5 7.15625 3.5 7C3.5 6.85938 3.57813 6.73437 3.70312 6.67188L5.71875 5.73438L6.65625 3.71875C6.71875 3.59375 6.84375 3.5 7 3.5Z" fill="currentColor"/>
</svg>
